<svg width="696" height="216" viewBox="0 0 696 216" fill="none" xmlns="http://www.w3.org/2000/svg">
<rect width="696" height="216" fill="white"/>
<rect x="2" y="23" width="231" height="191" stroke="#76DD66" stroke-width="4"/>
<rect x="463" y="23" width="231" height="191" stroke="#6672DD" stroke-width="4"/>
<path d="M105.057 18V9.27273H110.29V10.2102H106.114V13.1591H109.898V14.0966H106.114V18H105.057ZM116.873 11.4545C116.821 11.0227 116.614 10.6875 116.25 10.4489C115.887 10.2102 115.441 10.0909 114.912 10.0909C114.526 10.0909 114.188 10.1534 113.898 10.2784C113.611 10.4034 113.387 10.5753 113.225 10.794C113.066 11.0128 112.986 11.2614 112.986 11.5398C112.986 11.7727 113.042 11.973 113.152 12.1406C113.266 12.3054 113.411 12.4432 113.587 12.554C113.763 12.6619 113.948 12.7514 114.141 12.8224C114.334 12.8906 114.512 12.946 114.674 12.9886L115.56 13.2273C115.787 13.2869 116.04 13.3693 116.319 13.4744C116.6 13.5795 116.868 13.723 117.124 13.9048C117.382 14.0838 117.596 14.3139 117.763 14.5952C117.931 14.8764 118.015 15.2216 118.015 15.6307C118.015 16.1023 117.891 16.5284 117.644 16.9091C117.4 17.2898 117.042 17.5923 116.57 17.8168C116.101 18.0412 115.532 18.1534 114.861 18.1534C114.236 18.1534 113.695 18.0526 113.238 17.8509C112.783 17.6491 112.425 17.3679 112.164 17.0071C111.905 16.6463 111.759 16.2273 111.725 15.75H112.816C112.844 16.0795 112.955 16.3523 113.148 16.5682C113.344 16.7812 113.591 16.9403 113.89 17.0455C114.191 17.1477 114.515 17.1989 114.861 17.1989C115.265 17.1989 115.627 17.1335 115.948 17.0028C116.269 16.8693 116.523 16.6847 116.711 16.4489C116.898 16.2102 116.992 15.9318 116.992 15.6136C116.992 15.3239 116.911 15.0881 116.749 14.9062C116.587 14.7244 116.374 14.5767 116.11 14.4631C115.846 14.3494 115.56 14.25 115.253 14.1648L114.179 13.858C113.498 13.6619 112.958 13.3821 112.56 13.0185C112.162 12.6548 111.963 12.179 111.963 11.5909C111.963 11.1023 112.096 10.6761 112.36 10.3125C112.627 9.94602 112.985 9.66193 113.434 9.46023C113.885 9.25568 114.39 9.15341 114.946 9.15341C115.509 9.15341 116.009 9.25426 116.446 9.45597C116.884 9.65483 117.23 9.92756 117.486 10.2741C117.745 10.6207 117.881 11.0142 117.895 11.4545H116.873ZM119.752 9.27273H121.013L123.979 16.517H124.082L127.048 9.27273H128.309V18H127.32V11.3693H127.235L124.508 18H123.553L120.826 11.3693H120.741V18H119.752V9.27273Z" fill="black"/>
<path d="M551.75 18H549.057V9.27273H551.869C552.716 9.27273 553.44 9.44744 554.043 9.79688C554.645 10.1435 555.107 10.642 555.428 11.2926C555.749 11.9403 555.909 12.7159 555.909 13.6193C555.909 14.5284 555.747 15.3111 555.423 15.9673C555.099 16.6207 554.628 17.1236 554.009 17.4759C553.389 17.8253 552.636 18 551.75 18ZM550.114 17.0625H551.682C552.403 17.0625 553.001 16.9233 553.476 16.6449C553.95 16.3665 554.304 15.9702 554.537 15.456C554.77 14.9418 554.886 14.3295 554.886 13.6193C554.886 12.9148 554.771 12.3082 554.541 11.7997C554.311 11.2884 553.967 10.8963 553.51 10.6236C553.053 10.348 552.483 10.2102 551.801 10.2102H550.114V17.0625ZM557.63 18H556.522L559.726 9.27273H560.817L564.022 18H562.914L560.306 10.6534H560.238L557.63 18ZM558.039 14.5909H562.505V15.5284H558.039V14.5909ZM563.884 10.2102V9.27273H570.43V10.2102H567.685V18H566.629V10.2102H563.884ZM571.399 18H570.291L573.496 9.27273H574.587L577.791 18H576.683L574.075 10.6534H574.007L571.399 18ZM571.808 14.5909H576.274V15.5284H571.808V14.5909ZM579.151 18V9.27273H582.099C582.784 9.27273 583.344 9.39631 583.778 9.64347C584.216 9.88778 584.54 10.2188 584.75 10.6364C584.96 11.054 585.065 11.5199 585.065 12.0341C585.065 12.5483 584.96 13.0156 584.75 13.4361C584.543 13.8565 584.222 14.1918 583.787 14.4418C583.352 14.6889 582.795 14.8125 582.116 14.8125H580.003V13.875H582.082C582.551 13.875 582.928 13.794 583.212 13.6321C583.496 13.4702 583.702 13.2514 583.83 12.9759C583.96 12.6974 584.026 12.3835 584.026 12.0341C584.026 11.6847 583.96 11.3722 583.83 11.0966C583.702 10.821 583.494 10.6051 583.207 10.4489C582.92 10.2898 582.54 10.2102 582.065 10.2102H580.207V18H579.151ZM586.235 18H585.127L588.332 9.27273H589.423L592.627 18H591.519L588.911 10.6534H588.843L586.235 18ZM586.644 14.5909H591.11V15.5284H586.644V14.5909ZM592.49 10.2102V9.27273H599.035V10.2102H596.291V18H595.234V10.2102H592.49ZM600.666 18V9.27273H601.723V13.1591H606.376V9.27273H607.433V18H606.376V14.0966H601.723V18H600.666Z" fill="black"/>
<rect x="559" y="42" width="113" height="32" fill="#D9D9D9"/>
<rect x="559" y="164" width="113" height="32" fill="#D9D9D9"/>
<path d="M614.939 165.061C615.525 165.646 616.475 165.646 617.061 165.061L626.607 155.515C627.192 154.929 627.192 153.979 626.607 153.393C626.021 152.808 625.071 152.808 624.485 153.393L616 161.879L607.515 153.393C606.929 152.808 605.979 152.808 605.393 153.393C604.808 153.979 604.808 154.929 605.393 155.515L614.939 165.061ZM614.5 74V76.8125H617.5V74H614.5ZM614.5 82.4375V88.0625H617.5V82.4375H614.5ZM614.5 93.6875V99.3125H617.5V93.6875H614.5ZM614.5 104.938V110.562H617.5V104.938H614.5ZM614.5 116.188V121.812H617.5V116.188H614.5ZM614.5 127.438V133.062H617.5V127.438H614.5ZM614.5 138.688V144.312H617.5V138.688H614.5ZM614.5 149.938V155.562H617.5V149.938H614.5ZM614.5 161.188V164H617.5V161.188H614.5ZM613.879 166.121C615.05 167.293 616.95 167.293 618.121 166.121L637.213 147.029C638.385 145.858 638.385 143.958 637.213 142.787C636.042 141.615 634.142 141.615 632.971 142.787L616 159.757L599.029 142.787C597.858 141.615 595.958 141.615 594.787 142.787C593.615 143.958 593.615 145.858 594.787 147.029L613.879 166.121ZM613 74V76.8125H619V74H613ZM613 82.4375V88.0625H619V82.4375H613ZM613 93.6875V99.3125H619V93.6875H613ZM613 104.938V110.562H619V104.938H613ZM613 116.188V121.812H619V116.188H613ZM613 127.438V133.062H619V127.438H613ZM613 138.688V144.312H619V138.688H613ZM613 149.938V155.562H619V149.938H613ZM613 161.188V164H619V161.188H613Z" fill="black"/>
<path d="M560.061 59.0607C560.646 58.4749 560.646 57.5251 560.061 56.9393L550.515 47.3934C549.929 46.8076 548.979 46.8076 548.393 47.3934C547.808 47.9792 547.808 48.9289 548.393 49.5147L556.879 58L548.393 66.4853C547.808 67.0711 547.808 68.0208 548.393 68.6066C548.979 69.1924 549.929 69.1924 550.515 68.6066L560.061 59.0607ZM235 59.5H559V56.5H235V59.5Z" fill="black"/>
<path d="M233.939 178.939C233.354 179.525 233.354 180.475 233.939 181.061L243.485 190.607C244.071 191.192 245.021 191.192 245.607 190.607C246.192 190.021 246.192 189.071 245.607 188.485L237.121 180L245.607 171.515C246.192 170.929 246.192 169.979 245.607 169.393C245.021 168.808 244.071 168.808 243.485 169.393L233.939 178.939ZM559 178.5L235 178.5V181.5L559 181.5V178.5Z" fill="black"/>
<path d="M332.92 54V47.4545H333.892V48.4432H333.96C334.08 48.1193 334.295 47.8565 334.608 47.6548C334.92 47.4531 335.273 47.3523 335.665 47.3523C335.739 47.3523 335.831 47.3537 335.942 47.3565C336.053 47.3594 336.136 47.3636 336.193 47.3693V48.392C336.159 48.3835 336.081 48.3707 335.959 48.3537C335.839 48.3338 335.713 48.3239 335.58 48.3239C335.261 48.3239 334.977 48.3906 334.727 48.5241C334.48 48.6548 334.284 48.8366 334.139 49.0696C333.997 49.2997 333.926 49.5625 333.926 49.858V54H332.92ZM339.93 54.1364C339.3 54.1364 338.756 53.9972 338.298 53.7188C337.844 53.4375 337.493 53.0455 337.246 52.5426C337.001 52.0369 336.879 51.4489 336.879 50.7784C336.879 50.108 337.001 49.517 337.246 49.0057C337.493 48.4915 337.837 48.0909 338.277 47.804C338.72 47.5142 339.237 47.3693 339.828 47.3693C340.169 47.3693 340.506 47.4261 340.838 47.5398C341.17 47.6534 341.473 47.8381 341.746 48.0938C342.018 48.3466 342.236 48.6818 342.398 49.0994C342.56 49.517 342.641 50.0312 342.641 50.642V51.0682H337.595V50.1989H341.618C341.618 49.8295 341.544 49.5 341.396 49.2102C341.251 48.9205 341.044 48.6918 340.774 48.5241C340.507 48.3565 340.192 48.2727 339.828 48.2727C339.428 48.2727 339.081 48.3722 338.788 48.571C338.499 48.767 338.276 49.0227 338.119 49.3381C337.963 49.6534 337.885 49.9915 337.885 50.3523V50.9318C337.885 51.4261 337.97 51.8452 338.141 52.1889C338.314 52.5298 338.554 52.7898 338.861 52.9688C339.168 53.1449 339.524 53.233 339.93 53.233C340.195 53.233 340.433 53.196 340.646 53.1222C340.862 53.0455 341.048 52.9318 341.205 52.7812C341.361 52.6278 341.482 52.4375 341.567 52.2102L342.538 52.483C342.436 52.8125 342.264 53.1023 342.023 53.3523C341.781 53.5994 341.483 53.7926 341.128 53.9318C340.773 54.0682 340.374 54.1364 339.93 54.1364ZM346.097 54.1534C345.682 54.1534 345.305 54.0753 344.967 53.919C344.629 53.7599 344.361 53.5312 344.162 53.233C343.963 52.9318 343.864 52.5682 343.864 52.142C343.864 51.767 343.938 51.4631 344.085 51.2301C344.233 50.9943 344.43 50.8097 344.678 50.6761C344.925 50.5426 345.197 50.4432 345.496 50.3778C345.797 50.3097 346.099 50.2557 346.403 50.2159C346.801 50.1648 347.124 50.1264 347.371 50.1009C347.621 50.0724 347.803 50.0256 347.916 49.9602C348.033 49.8949 348.091 49.7812 348.091 49.6193V49.5852C348.091 49.1648 347.976 48.8381 347.746 48.6051C347.518 48.3722 347.173 48.2557 346.71 48.2557C346.23 48.2557 345.854 48.3608 345.581 48.571C345.308 48.7812 345.116 49.0057 345.006 49.2443L344.051 48.9034C344.222 48.5057 344.449 48.196 344.733 47.9744C345.02 47.75 345.332 47.5937 345.67 47.5057C346.011 47.4148 346.347 47.3693 346.676 47.3693C346.886 47.3693 347.128 47.3949 347.401 47.446C347.676 47.4943 347.942 47.5952 348.197 47.7486C348.456 47.902 348.67 48.1335 348.841 48.4432C349.011 48.7528 349.097 49.1676 349.097 49.6875V54H348.091V53.1136H348.04C347.972 53.2557 347.858 53.4077 347.699 53.5696C347.54 53.7315 347.328 53.8693 347.064 53.983C346.8 54.0966 346.477 54.1534 346.097 54.1534ZM346.25 53.25C346.648 53.25 346.983 53.1719 347.256 53.0156C347.531 52.8594 347.739 52.6577 347.878 52.4105C348.02 52.1634 348.091 51.9034 348.091 51.6307V50.7102C348.048 50.7614 347.955 50.8082 347.81 50.8509C347.668 50.8906 347.503 50.9261 347.315 50.9574C347.131 50.9858 346.95 51.0114 346.774 51.0341C346.601 51.054 346.46 51.071 346.352 51.0852C346.091 51.1193 345.847 51.1747 345.619 51.2514C345.395 51.3253 345.213 51.4375 345.074 51.5881C344.938 51.7358 344.869 51.9375 344.869 52.1932C344.869 52.5426 344.999 52.8068 345.257 52.9858C345.518 53.1619 345.849 53.25 346.25 53.25ZM353.404 54.1364C352.858 54.1364 352.377 53.9986 351.959 53.723C351.542 53.4446 351.215 53.0526 350.979 52.5469C350.743 52.0384 350.625 51.4375 350.625 50.7443C350.625 50.0568 350.743 49.4602 350.979 48.9545C351.215 48.4489 351.543 48.0582 351.963 47.7827C352.384 47.5071 352.87 47.3693 353.421 47.3693C353.847 47.3693 354.184 47.4403 354.431 47.5824C354.681 47.7216 354.871 47.8807 355.002 48.0597C355.135 48.2358 355.239 48.3807 355.313 48.4943H355.398V45.2727H356.404V54H355.432V52.9943H355.313C355.239 53.1136 355.134 53.2642 354.998 53.446C354.861 53.625 354.667 53.7855 354.414 53.9276C354.161 54.0668 353.824 54.1364 353.404 54.1364ZM353.54 53.233C353.944 53.233 354.284 53.1278 354.563 52.9176C354.841 52.7045 355.053 52.4105 355.198 52.0355C355.343 51.6577 355.415 51.2216 355.415 50.7273C355.415 50.2386 355.344 49.8111 355.202 49.4446C355.06 49.0753 354.85 48.7884 354.571 48.5838C354.293 48.3764 353.949 48.2727 353.54 48.2727C353.114 48.2727 352.759 48.3821 352.475 48.6009C352.194 48.8168 351.982 49.1108 351.84 49.483C351.701 49.8523 351.631 50.267 351.631 50.7273C351.631 51.1932 351.702 51.6165 351.844 51.9972C351.989 52.375 352.202 52.6761 352.483 52.9006C352.767 53.1222 353.12 53.233 353.54 53.233ZM359.033 56.4545C358.863 56.4545 358.711 56.4403 358.577 56.4119C358.444 56.3864 358.351 56.3608 358.3 56.3352L358.556 55.4489C358.8 55.5114 359.016 55.5341 359.203 55.517C359.391 55.5 359.557 55.4162 359.702 55.2656C359.85 55.1179 359.985 54.8778 360.107 54.5455L360.294 54.0341L357.874 47.4545H358.965L360.772 52.6705H360.84L362.647 47.4545H363.738L360.959 54.9545C360.834 55.2926 360.679 55.5724 360.495 55.794C360.31 56.0185 360.096 56.1847 359.851 56.2926C359.61 56.4006 359.337 56.4545 359.033 56.4545Z" fill="black"/>
<path d="M337.392 176.136C336.847 176.136 336.365 175.999 335.947 175.723C335.53 175.445 335.203 175.053 334.967 174.547C334.732 174.038 334.614 173.438 334.614 172.744C334.614 172.057 334.732 171.46 334.967 170.955C335.203 170.449 335.531 170.058 335.952 169.783C336.372 169.507 336.858 169.369 337.409 169.369C337.835 169.369 338.172 169.44 338.419 169.582C338.669 169.722 338.859 169.881 338.99 170.06C339.124 170.236 339.227 170.381 339.301 170.494H339.386V167.273H340.392V176H339.42V174.994H339.301C339.227 175.114 339.122 175.264 338.986 175.446C338.849 175.625 338.655 175.786 338.402 175.928C338.149 176.067 337.813 176.136 337.392 176.136ZM337.528 175.233C337.932 175.233 338.273 175.128 338.551 174.918C338.83 174.705 339.041 174.411 339.186 174.036C339.331 173.658 339.403 173.222 339.403 172.727C339.403 172.239 339.332 171.811 339.19 171.445C339.048 171.075 338.838 170.788 338.56 170.584C338.281 170.376 337.938 170.273 337.528 170.273C337.102 170.273 336.747 170.382 336.463 170.601C336.182 170.817 335.97 171.111 335.828 171.483C335.689 171.852 335.619 172.267 335.619 172.727C335.619 173.193 335.69 173.616 335.832 173.997C335.977 174.375 336.19 174.676 336.472 174.901C336.756 175.122 337.108 175.233 337.528 175.233ZM345.033 176.136C344.442 176.136 343.923 175.996 343.477 175.714C343.034 175.433 342.688 175.04 342.438 174.534C342.19 174.028 342.067 173.437 342.067 172.761C342.067 172.08 342.19 171.484 342.438 170.976C342.688 170.467 343.034 170.072 343.477 169.791C343.923 169.51 344.442 169.369 345.033 169.369C345.624 169.369 346.141 169.51 346.584 169.791C347.03 170.072 347.376 170.467 347.624 170.976C347.874 171.484 347.999 172.08 347.999 172.761C347.999 173.437 347.874 174.028 347.624 174.534C347.376 175.04 347.03 175.433 346.584 175.714C346.141 175.996 345.624 176.136 345.033 176.136ZM345.033 175.233C345.482 175.233 345.851 175.118 346.141 174.888C346.43 174.658 346.645 174.355 346.784 173.98C346.923 173.605 346.993 173.199 346.993 172.761C346.993 172.324 346.923 171.916 346.784 171.538C346.645 171.161 346.43 170.855 346.141 170.622C345.851 170.389 345.482 170.273 345.033 170.273C344.584 170.273 344.214 170.389 343.925 170.622C343.635 170.855 343.42 171.161 343.281 171.538C343.142 171.916 343.072 172.324 343.072 172.761C343.072 173.199 343.142 173.605 343.281 173.98C343.42 174.355 343.635 174.658 343.925 174.888C344.214 175.118 344.584 175.233 345.033 175.233ZM350.539 172.062V176H349.534V169.455H350.505V170.477H350.591C350.744 170.145 350.977 169.878 351.289 169.676C351.602 169.472 352.005 169.369 352.5 169.369C352.943 169.369 353.331 169.46 353.663 169.642C353.995 169.821 354.254 170.094 354.439 170.46C354.623 170.824 354.716 171.284 354.716 171.841V176H353.71V171.909C353.71 171.395 353.576 170.994 353.309 170.707C353.042 170.418 352.676 170.273 352.21 170.273C351.889 170.273 351.602 170.342 351.349 170.482C351.099 170.621 350.902 170.824 350.757 171.091C350.612 171.358 350.539 171.682 350.539 172.062ZM359.298 176.136C358.667 176.136 358.123 175.997 357.665 175.719C357.211 175.438 356.86 175.045 356.613 174.543C356.369 174.037 356.246 173.449 356.246 172.778C356.246 172.108 356.369 171.517 356.613 171.006C356.86 170.491 357.204 170.091 357.644 169.804C358.087 169.514 358.604 169.369 359.195 169.369C359.536 169.369 359.873 169.426 360.205 169.54C360.538 169.653 360.84 169.838 361.113 170.094C361.386 170.347 361.603 170.682 361.765 171.099C361.927 171.517 362.008 172.031 362.008 172.642V173.068H356.962V172.199H360.985C360.985 171.83 360.911 171.5 360.763 171.21C360.619 170.92 360.411 170.692 360.141 170.524C359.874 170.357 359.559 170.273 359.195 170.273C358.795 170.273 358.448 170.372 358.156 170.571C357.866 170.767 357.643 171.023 357.487 171.338C357.33 171.653 357.252 171.991 357.252 172.352V172.932C357.252 173.426 357.337 173.845 357.508 174.189C357.681 174.53 357.921 174.79 358.228 174.969C358.535 175.145 358.891 175.233 359.298 175.233C359.562 175.233 359.8 175.196 360.013 175.122C360.229 175.045 360.415 174.932 360.572 174.781C360.728 174.628 360.849 174.437 360.934 174.21L361.906 174.483C361.803 174.812 361.631 175.102 361.39 175.352C361.148 175.599 360.85 175.793 360.495 175.932C360.14 176.068 359.741 176.136 359.298 176.136Z" fill="black"/>
</svg>
