<svg width="696" height="216" viewBox="0 0 696 216" fill="none" xmlns="http://www.w3.org/2000/svg">
<rect width="696" height="216" fill="white"/>
<rect x="484" y="43" width="42" height="32" fill="#E62E2E"/>
<rect x="559" y="165" width="113" height="32" fill="#D9D9D9"/>
<path d="M614.939 166.061C615.525 166.646 616.475 166.646 617.061 166.061L626.607 156.515C627.192 155.929 627.192 154.979 626.607 154.393C626.021 153.808 625.071 153.808 624.485 154.393L616 162.879L607.515 154.393C606.929 153.808 605.979 153.808 605.393 154.393C604.808 154.979 604.808 155.929 605.393 156.515L614.939 166.061ZM614.5 75V77.8125H617.5V75H614.5ZM614.5 83.4375V89.0625H617.5V83.4375H614.5ZM614.5 94.6875V100.312H617.5V94.6875H614.5ZM614.5 105.938V111.562H617.5V105.938H614.5ZM614.5 117.188V122.812H617.5V117.188H614.5ZM614.5 128.438V134.062H617.5V128.438H614.5ZM614.5 139.688V145.312H617.5V139.688H614.5ZM614.5 150.938V156.562H617.5V150.938H614.5ZM614.5 162.188V165H617.5V162.188H614.5ZM613.879 167.121C615.05 168.293 616.95 168.293 618.121 167.121L637.213 148.029C638.385 146.858 638.385 144.958 637.213 143.787C636.042 142.615 634.142 142.615 632.971 143.787L616 160.757L599.029 143.787C597.858 142.615 595.958 142.615 594.787 143.787C593.615 144.958 593.615 146.858 594.787 148.029L613.879 167.121ZM613 75V77.8125H619V75H613ZM613 83.4375V89.0625H619V83.4375H613ZM613 94.6875V100.312H619V94.6875H613ZM613 105.938V111.562H619V105.938H613ZM613 117.188V122.812H619V117.188H613ZM613 128.438V134.062H619V128.438H613ZM613 139.688V145.312H619V139.688H613ZM613 150.938V156.562H619V150.938H613ZM613 162.188V165H619V162.188H613Z" fill="black"/>
<path d="M233.939 179.939C233.354 180.525 233.354 181.475 233.939 182.061L243.485 191.607C244.071 192.192 245.021 192.192 245.607 191.607C246.192 191.021 246.192 190.071 245.607 189.485L237.121 181L245.607 172.515C246.192 171.929 246.192 170.979 245.607 170.393C245.021 169.808 244.071 169.808 243.485 170.393L233.939 179.939ZM559 179.5L235 179.5V182.5L559 182.5V179.5Z" fill="black"/>
<path d="M337.392 177.136C336.847 177.136 336.365 176.999 335.947 176.723C335.53 176.445 335.203 176.053 334.967 175.547C334.732 175.038 334.614 174.438 334.614 173.744C334.614 173.057 334.732 172.46 334.967 171.955C335.203 171.449 335.531 171.058 335.952 170.783C336.372 170.507 336.858 170.369 337.409 170.369C337.835 170.369 338.172 170.44 338.419 170.582C338.669 170.722 338.859 170.881 338.99 171.06C339.124 171.236 339.227 171.381 339.301 171.494H339.386V168.273H340.392V177H339.42V175.994H339.301C339.227 176.114 339.122 176.264 338.986 176.446C338.849 176.625 338.655 176.786 338.402 176.928C338.149 177.067 337.813 177.136 337.392 177.136ZM337.528 176.233C337.932 176.233 338.273 176.128 338.551 175.918C338.83 175.705 339.041 175.411 339.186 175.036C339.331 174.658 339.403 174.222 339.403 173.727C339.403 173.239 339.332 172.811 339.19 172.445C339.048 172.075 338.838 171.788 338.56 171.584C338.281 171.376 337.938 171.273 337.528 171.273C337.102 171.273 336.747 171.382 336.463 171.601C336.182 171.817 335.97 172.111 335.828 172.483C335.689 172.852 335.619 173.267 335.619 173.727C335.619 174.193 335.69 174.616 335.832 174.997C335.977 175.375 336.19 175.676 336.472 175.901C336.756 176.122 337.108 176.233 337.528 176.233ZM345.033 177.136C344.442 177.136 343.923 176.996 343.477 176.714C343.034 176.433 342.688 176.04 342.438 175.534C342.19 175.028 342.067 174.437 342.067 173.761C342.067 173.08 342.19 172.484 342.438 171.976C342.688 171.467 343.034 171.072 343.477 170.791C343.923 170.51 344.442 170.369 345.033 170.369C345.624 170.369 346.141 170.51 346.584 170.791C347.03 171.072 347.376 171.467 347.624 171.976C347.874 172.484 347.999 173.08 347.999 173.761C347.999 174.437 347.874 175.028 347.624 175.534C347.376 176.04 347.03 176.433 346.584 176.714C346.141 176.996 345.624 177.136 345.033 177.136ZM345.033 176.233C345.482 176.233 345.851 176.118 346.141 175.888C346.43 175.658 346.645 175.355 346.784 174.98C346.923 174.605 346.993 174.199 346.993 173.761C346.993 173.324 346.923 172.916 346.784 172.538C346.645 172.161 346.43 171.855 346.141 171.622C345.851 171.389 345.482 171.273 345.033 171.273C344.584 171.273 344.214 171.389 343.925 171.622C343.635 171.855 343.42 172.161 343.281 172.538C343.142 172.916 343.072 173.324 343.072 173.761C343.072 174.199 343.142 174.605 343.281 174.98C343.42 175.355 343.635 175.658 343.925 175.888C344.214 176.118 344.584 176.233 345.033 176.233ZM350.539 173.062V177H349.534V170.455H350.505V171.477H350.591C350.744 171.145 350.977 170.878 351.289 170.676C351.602 170.472 352.005 170.369 352.5 170.369C352.943 170.369 353.331 170.46 353.663 170.642C353.995 170.821 354.254 171.094 354.439 171.46C354.623 171.824 354.716 172.284 354.716 172.841V177H353.71V172.909C353.71 172.395 353.576 171.994 353.309 171.707C353.042 171.418 352.676 171.273 352.21 171.273C351.889 171.273 351.602 171.342 351.349 171.482C351.099 171.621 350.902 171.824 350.757 172.091C350.612 172.358 350.539 172.682 350.539 173.062ZM359.298 177.136C358.667 177.136 358.123 176.997 357.665 176.719C357.211 176.438 356.86 176.045 356.613 175.543C356.369 175.037 356.246 174.449 356.246 173.778C356.246 173.108 356.369 172.517 356.613 172.006C356.86 171.491 357.204 171.091 357.644 170.804C358.087 170.514 358.604 170.369 359.195 170.369C359.536 170.369 359.873 170.426 360.205 170.54C360.538 170.653 360.84 170.838 361.113 171.094C361.386 171.347 361.603 171.682 361.765 172.099C361.927 172.517 362.008 173.031 362.008 173.642V174.068H356.962V173.199H360.985C360.985 172.83 360.911 172.5 360.763 172.21C360.619 171.92 360.411 171.692 360.141 171.524C359.874 171.357 359.559 171.273 359.195 171.273C358.795 171.273 358.448 171.372 358.156 171.571C357.866 171.767 357.643 172.023 357.487 172.338C357.33 172.653 357.252 172.991 357.252 173.352V173.932C357.252 174.426 357.337 174.845 357.508 175.189C357.681 175.53 357.921 175.79 358.228 175.969C358.535 176.145 358.891 176.233 359.298 176.233C359.562 176.233 359.8 176.196 360.013 176.122C360.229 176.045 360.415 175.932 360.572 175.781C360.728 175.628 360.849 175.437 360.934 175.21L361.906 175.483C361.803 175.812 361.631 176.102 361.39 176.352C361.148 176.599 360.85 176.793 360.495 176.932C360.14 177.068 359.741 177.136 359.298 177.136Z" fill="black"/>
<rect x="2" y="23" width="231" height="191" stroke="#76DD66" stroke-width="4"/>
<rect x="463" y="23" width="231" height="191" stroke="#6672DD" stroke-width="4"/>
<path d="M105.057 19V10.2727H110.29V11.2102H106.114V14.1591H109.898V15.0966H106.114V19H105.057ZM116.873 12.4545C116.821 12.0227 116.614 11.6875 116.25 11.4489C115.887 11.2102 115.441 11.0909 114.912 11.0909C114.526 11.0909 114.188 11.1534 113.898 11.2784C113.611 11.4034 113.387 11.5753 113.225 11.794C113.066 12.0128 112.986 12.2614 112.986 12.5398C112.986 12.7727 113.042 12.973 113.152 13.1406C113.266 13.3054 113.411 13.4432 113.587 13.554C113.763 13.6619 113.948 13.7514 114.141 13.8224C114.334 13.8906 114.512 13.946 114.674 13.9886L115.56 14.2273C115.787 14.2869 116.04 14.3693 116.319 14.4744C116.6 14.5795 116.868 14.723 117.124 14.9048C117.382 15.0838 117.596 15.3139 117.763 15.5952C117.931 15.8764 118.015 16.2216 118.015 16.6307C118.015 17.1023 117.891 17.5284 117.644 17.9091C117.4 18.2898 117.042 18.5923 116.57 18.8168C116.101 19.0412 115.532 19.1534 114.861 19.1534C114.236 19.1534 113.695 19.0526 113.238 18.8509C112.783 18.6491 112.425 18.3679 112.164 18.0071C111.905 17.6463 111.759 17.2273 111.725 16.75H112.816C112.844 17.0795 112.955 17.3523 113.148 17.5682C113.344 17.7812 113.591 17.9403 113.89 18.0455C114.191 18.1477 114.515 18.1989 114.861 18.1989C115.265 18.1989 115.627 18.1335 115.948 18.0028C116.269 17.8693 116.523 17.6847 116.711 17.4489C116.898 17.2102 116.992 16.9318 116.992 16.6136C116.992 16.3239 116.911 16.0881 116.749 15.9062C116.587 15.7244 116.374 15.5767 116.11 15.4631C115.846 15.3494 115.56 15.25 115.253 15.1648L114.179 14.858C113.498 14.6619 112.958 14.3821 112.56 14.0185C112.162 13.6548 111.963 13.179 111.963 12.5909C111.963 12.1023 112.096 11.6761 112.36 11.3125C112.627 10.946 112.985 10.6619 113.434 10.4602C113.885 10.2557 114.39 10.1534 114.946 10.1534C115.509 10.1534 116.009 10.2543 116.446 10.456C116.884 10.6548 117.23 10.9276 117.486 11.2741C117.745 11.6207 117.881 12.0142 117.895 12.4545H116.873ZM119.752 10.2727H121.013L123.979 17.517H124.082L127.048 10.2727H128.309V19H127.32V12.3693H127.235L124.508 19H123.553L120.826 12.3693H120.741V19H119.752V10.2727Z" fill="black"/>
<path d="M551.75 19H549.057V10.2727H551.869C552.716 10.2727 553.44 10.4474 554.043 10.7969C554.645 11.1435 555.107 11.642 555.428 12.2926C555.749 12.9403 555.909 13.7159 555.909 14.6193C555.909 15.5284 555.747 16.3111 555.423 16.9673C555.099 17.6207 554.628 18.1236 554.009 18.4759C553.389 18.8253 552.636 19 551.75 19ZM550.114 18.0625H551.682C552.403 18.0625 553.001 17.9233 553.476 17.6449C553.95 17.3665 554.304 16.9702 554.537 16.456C554.77 15.9418 554.886 15.3295 554.886 14.6193C554.886 13.9148 554.771 13.3082 554.541 12.7997C554.311 12.2884 553.967 11.8963 553.51 11.6236C553.053 11.348 552.483 11.2102 551.801 11.2102H550.114V18.0625ZM557.63 19H556.522L559.726 10.2727H560.817L564.022 19H562.914L560.306 11.6534H560.238L557.63 19ZM558.039 15.5909H562.505V16.5284H558.039V15.5909ZM563.884 11.2102V10.2727H570.43V11.2102H567.685V19H566.629V11.2102H563.884ZM571.399 19H570.291L573.496 10.2727H574.587L577.791 19H576.683L574.075 11.6534H574.007L571.399 19ZM571.808 15.5909H576.274V16.5284H571.808V15.5909ZM579.151 19V10.2727H582.099C582.784 10.2727 583.344 10.3963 583.778 10.6435C584.216 10.8878 584.54 11.2188 584.75 11.6364C584.96 12.054 585.065 12.5199 585.065 13.0341C585.065 13.5483 584.96 14.0156 584.75 14.4361C584.543 14.8565 584.222 15.1918 583.787 15.4418C583.352 15.6889 582.795 15.8125 582.116 15.8125H580.003V14.875H582.082C582.551 14.875 582.928 14.794 583.212 14.6321C583.496 14.4702 583.702 14.2514 583.83 13.9759C583.96 13.6974 584.026 13.3835 584.026 13.0341C584.026 12.6847 583.96 12.3722 583.83 12.0966C583.702 11.821 583.494 11.6051 583.207 11.4489C582.92 11.2898 582.54 11.2102 582.065 11.2102H580.207V19H579.151ZM586.235 19H585.127L588.332 10.2727H589.423L592.627 19H591.519L588.911 11.6534H588.843L586.235 19ZM586.644 15.5909H591.11V16.5284H586.644V15.5909ZM592.49 11.2102V10.2727H599.035V11.2102H596.291V19H595.234V11.2102H592.49ZM600.666 19V10.2727H601.723V14.1591H606.376V10.2727H607.433V19H606.376V15.0966H601.723V19H600.666Z" fill="black"/>
<rect x="559" y="43" width="113" height="32" fill="#D9D9D9"/>
<path d="M560.061 60.0607C560.646 59.4749 560.646 58.5251 560.061 57.9393L550.515 48.3934C549.929 47.8076 548.979 47.8076 548.393 48.3934C547.808 48.9792 547.808 49.9289 548.393 50.5147L556.879 59L548.393 67.4853C547.808 68.0711 547.808 69.0208 548.393 69.6066C548.979 70.1924 549.929 70.1924 550.515 69.6066L560.061 60.0607ZM526 60.5H559V57.5H526V60.5Z" fill="black"/>
<path d="M332.92 55V48.4545H333.892V49.4432H333.96C334.08 49.1193 334.295 48.8565 334.608 48.6548C334.92 48.4531 335.273 48.3523 335.665 48.3523C335.739 48.3523 335.831 48.3537 335.942 48.3565C336.053 48.3594 336.136 48.3636 336.193 48.3693V49.392C336.159 49.3835 336.081 49.3707 335.959 49.3537C335.839 49.3338 335.713 49.3239 335.58 49.3239C335.261 49.3239 334.977 49.3906 334.727 49.5241C334.48 49.6548 334.284 49.8366 334.139 50.0696C333.997 50.2997 333.926 50.5625 333.926 50.858V55H332.92ZM339.93 55.1364C339.3 55.1364 338.756 54.9972 338.298 54.7188C337.844 54.4375 337.493 54.0455 337.246 53.5426C337.001 53.0369 336.879 52.4489 336.879 51.7784C336.879 51.108 337.001 50.517 337.246 50.0057C337.493 49.4915 337.837 49.0909 338.277 48.804C338.72 48.5142 339.237 48.3693 339.828 48.3693C340.169 48.3693 340.506 48.4261 340.838 48.5398C341.17 48.6534 341.473 48.8381 341.746 49.0938C342.018 49.3466 342.236 49.6818 342.398 50.0994C342.56 50.517 342.641 51.0312 342.641 51.642V52.0682H337.595V51.1989H341.618C341.618 50.8295 341.544 50.5 341.396 50.2102C341.251 49.9205 341.044 49.6918 340.774 49.5241C340.507 49.3565 340.192 49.2727 339.828 49.2727C339.428 49.2727 339.081 49.3722 338.788 49.571C338.499 49.767 338.276 50.0227 338.119 50.3381C337.963 50.6534 337.885 50.9915 337.885 51.3523V51.9318C337.885 52.4261 337.97 52.8452 338.141 53.1889C338.314 53.5298 338.554 53.7898 338.861 53.9688C339.168 54.1449 339.524 54.233 339.93 54.233C340.195 54.233 340.433 54.196 340.646 54.1222C340.862 54.0455 341.048 53.9318 341.205 53.7812C341.361 53.6278 341.482 53.4375 341.567 53.2102L342.538 53.483C342.436 53.8125 342.264 54.1023 342.023 54.3523C341.781 54.5994 341.483 54.7926 341.128 54.9318C340.773 55.0682 340.374 55.1364 339.93 55.1364ZM346.097 55.1534C345.682 55.1534 345.305 55.0753 344.967 54.919C344.629 54.7599 344.361 54.5312 344.162 54.233C343.963 53.9318 343.864 53.5682 343.864 53.142C343.864 52.767 343.938 52.4631 344.085 52.2301C344.233 51.9943 344.43 51.8097 344.678 51.6761C344.925 51.5426 345.197 51.4432 345.496 51.3778C345.797 51.3097 346.099 51.2557 346.403 51.2159C346.801 51.1648 347.124 51.1264 347.371 51.1009C347.621 51.0724 347.803 51.0256 347.916 50.9602C348.033 50.8949 348.091 50.7812 348.091 50.6193V50.5852C348.091 50.1648 347.976 49.8381 347.746 49.6051C347.518 49.3722 347.173 49.2557 346.71 49.2557C346.23 49.2557 345.854 49.3608 345.581 49.571C345.308 49.7812 345.116 50.0057 345.006 50.2443L344.051 49.9034C344.222 49.5057 344.449 49.196 344.733 48.9744C345.02 48.75 345.332 48.5937 345.67 48.5057C346.011 48.4148 346.347 48.3693 346.676 48.3693C346.886 48.3693 347.128 48.3949 347.401 48.446C347.676 48.4943 347.942 48.5952 348.197 48.7486C348.456 48.902 348.67 49.1335 348.841 49.4432C349.011 49.7528 349.097 50.1676 349.097 50.6875V55H348.091V54.1136H348.04C347.972 54.2557 347.858 54.4077 347.699 54.5696C347.54 54.7315 347.328 54.8693 347.064 54.983C346.8 55.0966 346.477 55.1534 346.097 55.1534ZM346.25 54.25C346.648 54.25 346.983 54.1719 347.256 54.0156C347.531 53.8594 347.739 53.6577 347.878 53.4105C348.02 53.1634 348.091 52.9034 348.091 52.6307V51.7102C348.048 51.7614 347.955 51.8082 347.81 51.8509C347.668 51.8906 347.503 51.9261 347.315 51.9574C347.131 51.9858 346.95 52.0114 346.774 52.0341C346.601 52.054 346.46 52.071 346.352 52.0852C346.091 52.1193 345.847 52.1747 345.619 52.2514C345.395 52.3253 345.213 52.4375 345.074 52.5881C344.938 52.7358 344.869 52.9375 344.869 53.1932C344.869 53.5426 344.999 53.8068 345.257 53.9858C345.518 54.1619 345.849 54.25 346.25 54.25ZM353.404 55.1364C352.858 55.1364 352.377 54.9986 351.959 54.723C351.542 54.4446 351.215 54.0526 350.979 53.5469C350.743 53.0384 350.625 52.4375 350.625 51.7443C350.625 51.0568 350.743 50.4602 350.979 49.9545C351.215 49.4489 351.543 49.0582 351.963 48.7827C352.384 48.5071 352.87 48.3693 353.421 48.3693C353.847 48.3693 354.184 48.4403 354.431 48.5824C354.681 48.7216 354.871 48.8807 355.002 49.0597C355.135 49.2358 355.239 49.3807 355.313 49.4943H355.398V46.2727H356.404V55H355.432V53.9943H355.313C355.239 54.1136 355.134 54.2642 354.998 54.446C354.861 54.625 354.667 54.7855 354.414 54.9276C354.161 55.0668 353.824 55.1364 353.404 55.1364ZM353.54 54.233C353.944 54.233 354.284 54.1278 354.563 53.9176C354.841 53.7045 355.053 53.4105 355.198 53.0355C355.343 52.6577 355.415 52.2216 355.415 51.7273C355.415 51.2386 355.344 50.8111 355.202 50.4446C355.06 50.0753 354.85 49.7884 354.571 49.5838C354.293 49.3764 353.949 49.2727 353.54 49.2727C353.114 49.2727 352.759 49.3821 352.475 49.6009C352.194 49.8168 351.982 50.1108 351.84 50.483C351.701 50.8523 351.631 51.267 351.631 51.7273C351.631 52.1932 351.702 52.6165 351.844 52.9972C351.989 53.375 352.202 53.6761 352.483 53.9006C352.767 54.1222 353.12 54.233 353.54 54.233ZM359.033 57.4545C358.863 57.4545 358.711 57.4403 358.577 57.4119C358.444 57.3864 358.351 57.3608 358.3 57.3352L358.556 56.4489C358.8 56.5114 359.016 56.5341 359.203 56.517C359.391 56.5 359.557 56.4162 359.702 56.2656C359.85 56.1179 359.985 55.8778 360.107 55.5455L360.294 55.0341L357.874 48.4545H358.965L360.772 53.6705H360.84L362.647 48.4545H363.738L360.959 55.9545C360.834 56.2926 360.679 56.5724 360.495 56.794C360.31 57.0185 360.096 57.1847 359.851 57.2926C359.61 57.4006 359.337 57.4545 359.033 57.4545Z" fill="black"/>
<path d="M494.057 63V54.2727H497.006C497.688 54.2727 498.247 54.3892 498.685 54.6222C499.122 54.8523 499.446 55.169 499.656 55.5724C499.866 55.9759 499.972 56.4347 499.972 56.9489C499.972 57.4631 499.866 57.919 499.656 58.3168C499.446 58.7145 499.124 59.027 498.689 59.2543C498.254 59.4787 497.699 59.5909 497.023 59.5909H494.636V58.6364H496.989C497.455 58.6364 497.83 58.5682 498.114 58.4318C498.401 58.2955 498.608 58.1023 498.736 57.8523C498.866 57.5994 498.932 57.2983 498.932 56.9489C498.932 56.5994 498.866 56.294 498.736 56.0327C498.605 55.7713 498.396 55.5696 498.109 55.4276C497.822 55.2827 497.443 55.2102 496.972 55.2102H495.114V63H494.057ZM498.165 59.0795L500.312 63H499.085L496.972 59.0795H498.165ZM501.733 63V54.2727H507V55.2102H502.789V58.1591H506.727V59.0966H502.789V62.0625H507.068V63H501.733ZM514.87 57C514.777 56.7131 514.653 56.456 514.5 56.2287C514.349 55.9986 514.169 55.8026 513.958 55.6406C513.751 55.4787 513.515 55.3551 513.251 55.2699C512.987 55.1847 512.697 55.142 512.382 55.142C511.865 55.142 511.395 55.2756 510.971 55.5426C510.548 55.8097 510.211 56.2031 509.961 56.723C509.711 57.2429 509.586 57.8807 509.586 58.6364C509.586 59.392 509.713 60.0298 509.966 60.5497C510.218 61.0696 510.561 61.4631 510.993 61.7301C511.424 61.9972 511.91 62.1307 512.45 62.1307C512.95 62.1307 513.39 62.0241 513.771 61.8111C514.154 61.5952 514.453 61.2912 514.666 60.8991C514.882 60.5043 514.99 60.0398 514.99 59.5057L515.314 59.5739H512.689V58.6364H516.012V59.5739C516.012 60.2926 515.859 60.9176 515.552 61.4489C515.248 61.9801 514.828 62.392 514.291 62.6847C513.757 62.9744 513.143 63.1193 512.45 63.1193C511.677 63.1193 510.998 62.9375 510.413 62.5739C509.831 62.2102 509.376 61.6932 509.049 61.0227C508.725 60.3523 508.564 59.5568 508.564 58.6364C508.564 57.946 508.656 57.3253 508.841 56.7741C509.028 56.2202 509.292 55.7486 509.633 55.3594C509.974 54.9702 510.377 54.6719 510.843 54.4645C511.309 54.2571 511.822 54.1534 512.382 54.1534C512.842 54.1534 513.271 54.223 513.669 54.3622C514.069 54.4986 514.426 54.6932 514.738 54.946C515.054 55.196 515.316 55.4957 515.527 55.8452C515.737 56.1918 515.882 56.5767 515.961 57H514.87Z" fill="black"/>
<path d="M485.061 60.0607C485.646 59.4749 485.646 58.5251 485.061 57.9393L475.515 48.3934C474.929 47.8076 473.979 47.8076 473.393 48.3934C472.808 48.9792 472.808 49.9289 473.393 50.5147L481.879 59L473.393 67.4853C472.808 68.0711 472.808 69.0208 473.393 69.6066C473.979 70.1924 474.929 70.1924 475.515 69.6066L485.061 60.0607ZM235 60.5H484V57.5H235V60.5Z" fill="black"/>
</svg>
